name Walk5.mot
datacolumns 19
datarows 10
range 1.94000000 1.98500000
endheader

                time	   L_ground_force_vx	   L_ground_force_vy	   L_ground_force_vz	   L_ground_force_px	   L_ground_force_py	   L_ground_force_pz	   R_ground_force_vx	   R_ground_force_vy	   R_ground_force_vz	   R_ground_force_px	   R_ground_force_py	   R_ground_force_pz	   L_ground_torque_x	   L_ground_torque_y	   L_ground_torque_z	   R_ground_torque_x	   R_ground_torque_y	   R_ground_torque_z	
          1.94000000	        -24.48536927	        579.99715670	         25.06314215	          0.40832900	          0.00000000	          0.26151494	         -0.00000000	          0.00000000	         -0.00000000	         -0.00000000	          0.00000000	          0.00000000	          0.00000000	         -1.69484762	          0.00000000	          0.00000000	         -0.00000000	          0.00000000	
          1.94500000	        -23.04959142	        571.29849342	         24.87797562	          0.41112444	          0.00000000	          0.26145041	         -0.00000000	         -0.00000000	         -0.00000000	          0.00000000	          0.00000000	         -0.00000000	          0.00000000	         -1.87034848	          0.00000000	          0.00000000	         -0.00000000	          0.00000000	
          1.95000000	        -22.26269889	        563.45090915	         24.74656300	          0.41407623	          0.00000000	          0.26138725	         -0.00000000	         -0.00000000	         -0.00000000	          0.00000000	          0.00000000	         -0.00000000	          0.00000000	         -2.03349007	          0.00000000	          0.00000000	         -0.00000000	          0.00000000	
          1.95500000	        -22.06687807	        556.84930937	         24.91253959	          0.41721743	          0.00000000	          0.26126929	          0.00000000	         -0.00000000	          0.00000000	          0.00000000	          0.00000000	         -0.00000000	          0.00000000	         -2.14972681	          0.00000000	          0.00000000	          0.00000000	          0.00000000	
          1.96000000	        -21.74452413	        551.75259841	         25.78377466	          0.42041612	          0.00000000	          0.26123502	          0.00000000	          0.00000000	          0.00000000	         -0.00000000	          0.00000000	          0.00000000	          0.00000000	         -2.20204268	          0.00000000	          0.00000000	          0.00000000	          0.00000000	
          1.96500000	        -20.91902050	        548.50950533	         27.52889076	          0.42367084	          0.00000000	          0.26137432	         -0.00000000	          0.00000000	          0.00000000	         -0.00000000	          0.00000000	          0.00000000	          0.00000000	         -2.19417786	          0.00000000	          0.00000000	          0.00000000	          0.00000000	
          1.97000000	        -19.56524808	        546.98295320	         29.81156028	          0.42677096	          0.00000000	          0.26145915	         -0.00000000	         -0.00000000	         -0.00000000	         -0.00000000	          0.00000000	          0.00000000	          0.00000000	         -2.13489908	          0.00000000	          0.00000000	         -0.00000000	          0.00000000	
          1.97500000	        -17.99438687	        546.51314376	         32.39093131	          0.42966602	          0.00000000	          0.26142327	         -0.00000000	         -0.00000000	         -0.00000000	          0.00000000	          0.00000000	         -0.00000000	          0.00000000	         -2.02815739	          0.00000000	          0.00000000	         -0.00000000	          0.00000000	
          1.98000000	        -16.62526522	        547.16887984	         35.01911074	          0.43238166	          0.00000000	          0.26132041	          0.00000000	         -0.00000000	          0.00000000	          0.00000000	          0.00000000	         -0.00000000	          0.00000000	         -1.94417894	          0.00000000	          0.00000000	          0.00000000	          0.00000000	
          1.98500000	        -15.63118189	        548.94649541	         37.39400306	          0.43528489	          0.00000000	          0.26110396	          0.00000000	          0.00000000	          0.00000000	         -0.00000000	          0.00000000	         -0.00000000	          0.00000000	         -1.91976243	          0.00000000	          0.00000000	          0.00000000	          0.00000000	
